<svg width="6" height="22" viewBox="0 0 6 22" fill="none" xmlns="http://www.w3.org/2000/svg">
<path d="M0.449219 11.2804C0.449219 11.9877 0.730171 12.666 1.23027 13.1661C1.73036 13.6662 2.40864 13.9471 3.11589 13.9471C3.82313 13.9471 4.50141 13.6662 5.0015 13.1661C5.5016 12.666 5.78255 11.9877 5.78255 11.2804C5.78255 10.5732 5.5016 9.89492 5.0015 9.39482C4.50141 8.89472 3.82313 8.61377 3.11589 8.61377C2.40864 8.61377 1.73036 8.89472 1.23027 9.39482C0.730171 9.89492 0.449219 10.5732 0.449219 11.2804ZM0.449219 3.28044C0.449219 3.98768 0.730171 4.66596 1.23027 5.16605C1.73036 5.66615 2.40864 5.9471 3.11589 5.9471C3.82313 5.9471 4.50141 5.66615 5.0015 5.16605C5.5016 4.66596 5.78255 3.98768 5.78255 3.28044C5.78255 2.57319 5.5016 1.89491 5.0015 1.39482C4.50141 0.894721 3.82313 0.61377 3.11589 0.61377C2.40864 0.61377 1.73036 0.894721 1.23027 1.39482C0.730171 1.89491 0.449219 2.57319 0.449219 3.28044ZM0.449219 19.2804C0.449219 19.9877 0.730171 20.666 1.23027 21.1661C1.73036 21.6662 2.40864 21.9471 3.11589 21.9471C3.82313 21.9471 4.50141 21.6662 5.0015 21.1661C5.5016 20.666 5.78255 19.9877 5.78255 19.2804C5.78255 18.5732 5.5016 17.8949 5.0015 17.3948C4.50141 16.8947 3.82313 16.6138 3.11589 16.6138C2.40864 16.6138 1.73036 16.8947 1.23027 17.3948C0.730171 17.8949 0.449219 18.5732 0.449219 19.2804Z" fill="#1C1D22"/>
</svg>
