<svg width="47" height="55" viewBox="0 0 47 55" fill="none" xmlns="http://www.w3.org/2000/svg">
<path d="M24.7695 2.0835H25.4634C33.7492 2.0835 37.8972 2.0835 40.7744 4.11175C41.5979 4.69125 42.3299 5.38258 42.9475 6.15779C45.1029 8.8672 45.1029 12.7661 45.1029 20.569V27.0376C45.1029 34.5685 45.1029 38.3353 43.9108 41.3421C41.9944 46.1789 37.943 49.9914 32.8037 51.796C29.6089 52.9168 25.6108 52.9168 17.6046 52.9168C13.0347 52.9168 10.7472 52.9168 8.92224 52.2763C5.98661 51.2444 3.67116 49.0662 2.5757 46.3034C1.89453 44.5852 1.89453 42.4324 1.89453 38.1294V27.5002" stroke="#8000DC" stroke-width="3" stroke-linecap="round" stroke-linejoin="round"/>
<path d="M45.1042 27.5002C45.1042 29.7469 44.2116 31.9016 42.623 33.4903C41.0343 35.079 38.8795 35.9715 36.6328 35.9715C34.94 35.9715 32.9448 35.6767 31.3004 36.1164C30.5821 36.3096 29.9272 36.6881 29.4013 37.214C28.8754 37.7399 28.4969 38.3948 28.3038 39.113C27.864 40.7575 28.1589 42.7527 28.1589 44.4455C28.1589 45.5579 27.9398 46.6595 27.514 47.6873C27.0883 48.7151 26.4643 49.649 25.6777 50.4356C24.891 51.2223 23.9572 51.8463 22.9294 52.272C21.9016 52.6977 20.8 52.9168 19.6875 52.9168M4.4375 8.43766C5.688 7.15158 9.0125 2.0835 10.7917 2.0835M10.7917 2.0835C12.5708 2.0835 15.8953 7.15158 17.1458 8.43766M10.7917 2.0835V22.4168" stroke="#8000DC" stroke-width="3" stroke-linecap="round" stroke-linejoin="round"/>
</svg>
